<?xml version="1.0" encoding="utf-8"?>
<!DOCTYPE svg PUBLIC "-//W3C//DTD SVG 1.1//EN" "http://www.w3.org/Graphics/SVG/1.1/DTD/svg11.dtd">
<svg version="1.1" id="header" xmlns="http://www.w3.org/2000/svg" xmlns:xlink="http://www.w3.org/1999/xlink" x="0px" y="0px"
	 width="353px" height="104px" viewBox="0 0 353 104" style="enable-background:new 0 0 353 104;" xml:space="preserve">
<rect id="sq_15" x="20" y="80" style="fill:#659A41;" width="20" height="20">
  <animate id="op15a" attributeName="opacity" from="1" to=".2" begin="2s; op15b.end+10s" dur="3s" fill="freeze" />
  <animate id="op15b" attributeName="opacity" from=".2" to="1" begin="op15a.end+10s" dur="3s" fill="freeze" />
</rect>
<rect id="sq_14" x="60" y="60" style="fill:#659A41;" width="20" height="20">
  <animate id="op14a" attributeName="opacity" from="1" to=".2" begin="8s; op14b.end+12s" dur="3s" fill="freeze" />
  <animate id="op14b" attributeName="opacity" from=".2" to="1" begin="op14a.end+1s" dur="3s" fill="freeze" />
</rect>
<rect id="sq_13" x="40" y="60" style="fill:#99CB99;" width="20" height="20">
  <animate id="op13a" attributeName="opacity" from="0" to="1" begin="0s; op13b.end+4s" dur="3s" fill="freeze" />
  <animate id="op13b" attributeName="opacity" from="1" to="0" begin="op13a.end+1s" dur="7s" fill="freeze" />
</rect>
<rect id="sq_12" x="60" y="40" style="fill:#72C8B4;" width="20" height="20"/>
<rect id="sq_11" x="60" style="fill:#9595C9;" width="20" height="20">
  
</rect>
<rect id="sq_10" x="120" style="fill:#9595C9;" width="20" height="20">
  <animate id="op10a" attributeName="opacity" from="1" to="0" begin="4s; op10b.end+12s" dur="8s" fill="freeze" />
  <animate id="op10b" attributeName="opacity" from="0" to="1" begin="op10a.end+5s" dur="8s" fill="freeze" />
</rect>
<rect id="sq_9" x="40" y="20" style="fill:#666699;" width="20" height="20">
  <animate id="op9a" attributeName="opacity" from="1" to="0" begin="9s; op9b.end+2s" dur="4s" fill="freeze" />
  <animate id="op9b" attributeName="opacity" from="0" to="1" begin="op9a.end+3s" dur="5s" fill="freeze" />
</rect>
<rect id="sq_8" x="20" y="20" style="fill:#3AC0C4;" width="20" height="20">
  <animate id="op8a" attributeName="opacity" from="1" to="0" begin="8s; op8b.end+10s" dur="6s" fill="freeze" />
  <animate id="op8b" attributeName="opacity" from="0" to="1" begin="op8a.end+6s" dur="10s" fill="freeze" />
</rect>
<rect id="sq_7" style="fill:#CBCC98;" width="20" height="20">
  <animate id="op7a" attributeName="opacity" from="1" to=".2" begin="0s; op7b.end+5s" dur="4s" fill="freeze" />
  <animate id="op7b" attributeName="opacity" from=".2" to="1" begin="op7a.end+5s" dur="4s" fill="freeze" />
</rect>
<rect id="sq_6" y="40" style="fill:#8ACA88;" width="20" height="20">
  <animate id="op6a" attributeName="opacity" from="0" to="1" begin="1s; op6b.end+7s" dur="3s" fill="freeze" />
  <animate id="op6b" attributeName="opacity" from="1" to="0" begin="op6a.end+3s" dur="9s" fill="freeze" />
</rect>
<rect id="sq_5" x="100" style="fill:#349947;" width="20" height="20"/>
<rect id="sq_4" x="160" style="fill:#349947;" width="20" height="20">
  <animate id="op4a" attributeName="opacity" from=".7" to=".3" begin="7s; op4b.end+1s" dur="5s" fill="freeze" />
  <animate id="op4b" attributeName="opacity" from=".3" to=".7" begin="op4a.end+3s" dur="2s" fill="freeze" />
</rect>
<rect id="sq_3" x="140" y="20" style="fill:#019999;" width="20" height="20">
  <animate id="op3a" attributeName="opacity" from="1" to="0" begin="3s; op3b.end+2s" dur="7s" fill="freeze" />
  <animate id="op3b" attributeName="opacity" from="0" to="1" begin="op3a.end+1s" dur="2s" fill="freeze" />
</rect>
<rect id="sq_2" x="100" y="20" style="fill:#3AC0C4;" width="20" height="20"/>
<rect id="sq_1" y="80" style="fill:#019999;" width="20" height="20"/>
<path id="logo-avila" style="fill:#FFFFFF;" d="M159.2,64.9c-2.9-1.8-6.6-2.1-9.2-1.4c-3.4,0.8-5.5,3.2-5.5,3.2L108.5,103h13.9
	l26.7-27c2.9-3,2.9-2.7,2.9-2.7s0.7-0.8,2.3,0c1.1,0.6,0.8,2.6,0.8,2.6v27.7h10.4V74.9C165.4,68.4,159.2,64.9,159.2,64.9z
	 M236.9,92.6c0,0-0.8,1.5-2.8,1.5c0,0-2.6,0.1-2.6-3V64.2h-19.9l-28,28.1c0,0-1.9,1.6-2.5,1.7c0,0-3.9,0.6-3.9-2.5V64.2h-9.9v27
	c0,0,0.2,4,2.8,7.7c1.9,2.8,5.8,5,10.2,5c0,0,3.5,0.1,6.7-1.9c1.6-1,2.8-2.4,4.9-4.5l29-29.8v25c0,0,0.1,3.8,3.4,7
	c0,0,3.7,4.1,9.8,4.1c0,0,4.6,0.1,7.4-2.2C241.6,101.7,238,98.6,236.9,92.6z M227.1,60.1c2.6,0,4.7-2.1,4.7-4.7
	c0-2.6-2.1-4.7-4.7-4.7s-4.7,2.1-4.7,4.7C222.4,58,224.5,60.1,227.1,60.1z M298.2,68.4c-4-5.6-9.9-5.2-9.9-5.2
	c-5.8,0-9.8,4.5-9.8,4.5s-23.7,24.1-24.3,24.6c-0.4,0.4-1,1-1.7,1.4c-0.7,0.5-1.8,0.4-1.8,0.4c-2.2,0-2-2.9-2-2.9V54.4h-10.4v36.8
	c0,4.4,2.5,7.4,2.5,7.4c4.1,5.7,10.4,5.4,10.4,5.4c5.4,0,10-4.6,10-4.6l24.5-24.7c1.7-1.7,2.8-1.6,2.8-1.6c2.8,0,2.3,3.2,2.3,3.2
	v27.4h9.4V74.5C300,71.3,298.2,68.4,298.2,68.4z"/>
</svg>
